<svg xmlns="http://www.w3.org/2000/svg" xmlns:xlink="http://www.w3.org/1999/xlink" id="Layer_5" data-name="Layer 5" viewBox="0 118.41 534.89 72.87">
  <defs>
    <style>
      .cls-1 {
        fill: none;
      }

      .cls-2 {
        fill: #231f20;
      }

      .cls-3 {
        clip-path: url(#clippath-1);
      }

      .cls-4 {
        clip-path: url(#clippath-3);
      }

      .cls-5 {
        clip-path: url(#clippath-4);
      }

      .cls-6 {
        clip-path: url(#clippath-2);
      }

      .cls-7 {
        clip-path: url(#clippath-5);
      }

      .cls-8 {
        clip-path: url(#clippath);
      }
    </style>
    <clipPath id="clippath">
      <rect class="cls-1" y="118.4" width="534.89" height="72.88"/>
    </clipPath>
    <clipPath id="clippath-1">
      <rect class="cls-1" y="118.4" width="534.89" height="72.88"/>
    </clipPath>
    <clipPath id="clippath-2">
      <rect class="cls-1" y="118.4" width="534.89" height="72.88"/>
    </clipPath>
    <clipPath id="clippath-3">
      <rect class="cls-1" y="118.4" width="534.89" height="72.88"/>
    </clipPath>
    <clipPath id="clippath-4">
      <rect class="cls-1" y="118.4" width="534.89" height="72.88"/>
    </clipPath>
    <clipPath id="clippath-5">
      <rect class="cls-1" y="118.4" width="534.89" height="72.88"/>
    </clipPath>
  </defs>
  <g class="cls-8">
    <path class="cls-2" d="M14.53,189.11c-2.85,0-5.59-.38-8.21-1.15-2.62-.76-4.72-1.76-6.32-2.98l2.8-6.22c1.53,1.09,3.34,1.98,5.43,2.68,2.09.7,4.21,1.05,6.35,1.05,1.63,0,2.95-.16,3.95-.48s1.74-.77,2.22-1.35c.47-.58.71-1.24.71-1.99,0-.95-.37-1.71-1.12-2.27-.75-.56-1.73-1.02-2.96-1.38-1.22-.36-2.57-.7-4.05-1.02-1.48-.32-2.96-.72-4.43-1.2s-2.83-1.09-4.05-1.84c-1.22-.75-2.22-1.73-2.98-2.96s-1.15-2.79-1.15-4.69c0-2.04.55-3.9,1.66-5.58,1.1-1.68,2.77-3.03,5-4.03,2.22-1,5.02-1.5,8.39-1.5,2.24,0,4.45.26,6.63.79,2.17.53,4.1,1.32,5.76,2.37l-2.55,6.27c-1.67-.95-3.33-1.66-5-2.12-1.67-.46-3.3-.69-4.89-.69s-2.91.19-3.93.56c-1.02.37-1.75.86-2.19,1.45-.44.6-.66,1.28-.66,2.06,0,.92.37,1.66,1.12,2.22.75.56,1.73,1.01,2.96,1.35,1.22.34,2.57.68,4.05,1.02,1.48.34,2.96.73,4.44,1.17,1.48.44,2.83,1.04,4.05,1.78,1.22.75,2.22,1.73,2.98,2.96.76,1.22,1.15,2.77,1.15,4.64,0,2.01-.56,3.84-1.68,5.51-1.12,1.67-2.8,3.01-5.02,4.03-2.23,1.02-5.04,1.53-8.44,1.53"/>
  </g>
  <path class="cls-2" d="M58.53,152.81h8.26v35.69h-8.26v-35.69ZM59.14,173.86h-17.44v-6.99h17.44v6.99ZM42.32,188.5h-8.26v-35.69h8.26v35.69Z"/>
  <g class="cls-3">
    <path class="cls-2" d="M91.26,182.07c1.6,0,3.07-.27,4.41-.82,1.34-.54,2.52-1.33,3.54-2.35,1.02-1.02,1.81-2.22,2.37-3.62.56-1.39.84-2.94.84-4.64s-.28-3.25-.84-4.64c-.56-1.39-1.34-2.6-2.34-3.62-1-1.02-2.19-1.8-3.54-2.35-1.36-.54-2.84-.81-4.43-.81s-3.07.27-4.41.81c-1.34.54-2.52,1.33-3.54,2.35-1.02,1.02-1.81,2.23-2.37,3.62-.56,1.39-.84,2.94-.84,4.64s.28,3.2.84,4.61c.56,1.41,1.34,2.63,2.35,3.64,1,1.02,2.18,1.8,3.54,2.35,1.36.54,2.84.82,4.44.82M91.31,189.11c-2.82,0-5.43-.46-7.83-1.38-2.4-.92-4.47-2.21-6.22-3.88-1.75-1.66-3.11-3.62-4.08-5.86-.97-2.24-1.45-4.69-1.45-7.34s.48-5.1,1.45-7.34c.97-2.24,2.34-4.2,4.1-5.86,1.77-1.67,3.84-2.96,6.22-3.87,2.38-.92,4.96-1.38,7.75-1.38s5.41.46,7.78,1.38c2.36.92,4.42,2.21,6.17,3.87,1.75,1.67,3.12,3.61,4.1,5.84.99,2.23,1.48,4.68,1.48,7.37s-.49,5.11-1.48,7.37c-.99,2.26-2.35,4.21-4.1,5.86-1.75,1.65-3.81,2.93-6.17,3.85-2.36.92-4.94,1.38-7.72,1.38"/>
  </g>
  <polygon class="cls-2" points="122.61 188.5 122.61 159.54 111.19 159.54 111.19 152.81 142.29 152.81 142.29 159.54 130.87 159.54 130.87 188.5 122.61 188.5"/>
  <g class="cls-6">
    <path class="cls-2" d="M153.66,182.28h9.64c2.14,0,3.76-.35,4.87-1.05,1.1-.7,1.66-1.81,1.66-3.34s-.55-2.61-1.66-3.34c-1.11-.73-2.73-1.1-4.87-1.1h-10.25v-6.02h8.82c2,0,3.54-.35,4.61-1.05,1.07-.7,1.6-1.76,1.6-3.19s-.53-2.44-1.6-3.13c-1.07-.7-2.61-1.05-4.61-1.05h-8.21v23.25ZM145.45,188.5v-35.69h17.44c4.49,0,7.86.85,10.12,2.55,2.26,1.7,3.39,3.94,3.39,6.73,0,1.87-.46,3.49-1.38,4.87-.92,1.38-2.18,2.44-3.77,3.19-1.6.75-3.43,1.12-5.51,1.12l.97-2.09c2.24,0,4.23.36,5.96,1.1,1.73.73,3.09,1.81,4.05,3.24.97,1.43,1.45,3.18,1.45,5.25,0,3.06-1.21,5.45-3.62,7.16-2.41,1.72-5.97,2.57-10.66,2.57h-18.46Z"/>
  </g>
  <path class="cls-2" d="M186.45,180.85l2.19-6.27h18.35l2.24,6.27h-22.79ZM178.49,188.5l15.91-35.69h8.16l15.96,35.69h-8.67l-13.05-31.51h3.26l-13.1,31.51h-8.46Z"/>
  <g class="cls-4">
    <path class="cls-2" d="M232.69,189.11c-2.86,0-5.59-.38-8.21-1.15s-4.72-1.76-6.32-2.98l2.8-6.22c1.53,1.09,3.34,1.98,5.43,2.68,2.09.7,4.21,1.05,6.35,1.05,1.63,0,2.95-.16,3.95-.48,1-.32,1.74-.77,2.22-1.35.48-.58.71-1.24.71-1.99,0-.95-.37-1.71-1.12-2.27-.75-.56-1.73-1.02-2.96-1.38-1.22-.36-2.57-.7-4.05-1.02-1.48-.32-2.96-.72-4.43-1.2-1.48-.48-2.83-1.09-4.05-1.84-1.22-.75-2.22-1.73-2.98-2.96-.77-1.22-1.15-2.79-1.15-4.69,0-2.04.55-3.9,1.66-5.58,1.1-1.68,2.77-3.03,5-4.03s5.02-1.5,8.39-1.5c2.24,0,4.45.26,6.63.79,2.18.53,4.1,1.32,5.76,2.37l-2.55,6.27c-1.67-.95-3.33-1.66-5-2.12s-3.3-.69-4.89-.69-2.91.19-3.92.56c-1.02.37-1.75.86-2.19,1.45-.44.6-.66,1.28-.66,2.06,0,.92.37,1.66,1.12,2.22.75.56,1.73,1.01,2.96,1.35,1.22.34,2.57.68,4.05,1.02,1.48.34,2.96.73,4.44,1.17,1.48.44,2.83,1.04,4.05,1.78,1.22.75,2.22,1.73,2.98,2.96.76,1.22,1.15,2.77,1.15,4.64,0,2.01-.56,3.84-1.68,5.51-1.12,1.67-2.8,3.01-5.02,4.03-2.23,1.02-5.04,1.53-8.44,1.53"/>
  </g>
  <path class="cls-2" d="M276.63,188.5l-12.69-15.55,5.4-5.86,16.92,21.41h-9.64ZM259.6,180.34l-.46-9.53,17.08-18h9.18l-15.4,16.57-4.59,4.89-5.81,6.07ZM252.21,152.81h8.21v35.69h-8.21v-35.69Z"/>
  <path class="cls-2" d="M296.26,167.19h17.18v6.42h-17.18v-6.42ZM296.87,181.87h19.42v6.63h-27.63v-35.69h26.97v6.63h-18.76v22.43Z"/>
  <polygon class="cls-2" points="328.99 188.5 328.99 159.54 317.57 159.54 317.57 152.81 348.67 152.81 348.67 159.54 337.25 159.54 337.25 188.5 328.99 188.5"/>
  <g class="cls-5">
    <path class="cls-2" d="M360.04,182.28h9.64c2.14,0,3.76-.35,4.87-1.05,1.1-.7,1.66-1.81,1.66-3.34s-.55-2.61-1.66-3.34c-1.1-.73-2.73-1.1-4.87-1.1h-10.25v-6.02h8.82c2,0,3.54-.35,4.61-1.05,1.07-.7,1.6-1.76,1.6-3.19s-.53-2.44-1.6-3.13c-1.07-.7-2.61-1.05-4.61-1.05h-8.21v23.25ZM351.83,188.5v-35.69h17.44c4.49,0,7.86.85,10.12,2.55,2.26,1.7,3.39,3.94,3.39,6.73,0,1.87-.46,3.49-1.38,4.87-.92,1.38-2.18,2.44-3.77,3.19-1.6.75-3.43,1.12-5.51,1.12l.97-2.09c2.24,0,4.23.36,5.96,1.1,1.73.73,3.08,1.81,4.05,3.24.97,1.43,1.45,3.18,1.45,5.25,0,3.06-1.21,5.45-3.62,7.16-2.41,1.72-5.96,2.57-10.65,2.57h-18.46Z"/>
  </g>
  <path class="cls-2" d="M392.82,180.85l2.19-6.27h18.35l2.24,6.27h-22.79ZM384.87,188.5l15.91-35.69h8.16l15.96,35.69h-8.67l-13.05-31.51h3.26l-13.1,31.51h-8.46Z"/>
  <polygon class="cls-2" points="427.33 188.5 427.33 152.81 435.59 152.81 435.59 181.77 453.49 181.77 453.49 188.5 427.33 188.5"/>
  <polygon class="cls-2" points="456.85 188.5 456.85 152.81 465.11 152.81 465.11 181.77 483.01 181.77 483.01 188.5 456.85 188.5"/>
  <g class="cls-7">
    <path class="cls-2" d="M534.89,171.79c0,10.76-8.73,19.49-19.49,19.49-10.05,0-18.33-7.61-19.38-17.39h-19.24v-6.7l10.08-10.08,8.91-8.91.83-.83c.42-.37.81-.76,1.18-1.18h0s0,0,0,0l2.03,2.03,2.66,2.66.05.05-16.26,16.26h17.22c-.55,1.43-.86,2.99-.86,4.61,0,.71.06,1.42.17,2.1,1,6.04,6.25,10.65,12.58,10.65,7.04,0,12.75-5.71,12.75-12.75s-5.71-12.75-12.75-12.75c-2.87,0-5.52.95-7.66,2.55-.03-.03-.07-.07-.1-.11l-1.7,1.7-2.28-2.28h0l-2.46-2.46.04-.05.71-.71,15.53-15.53h-17.3c.5-1.36.77-2.84.77-4.38,0-.8-.07-1.58-.21-2.34-1.08-5.81-6.09-10.24-12.17-10.41-.12,0-.25,0-.37,0-.22,0-.43,0-.65.02-6.74.34-12.11,5.91-12.11,12.74,0,5.74,3.8,10.6,9.01,12.2l-5.07,5.07c-6.28-3.21-10.57-9.73-10.57-17.27,0-10.45,8.27-18.96,18.62-19.36.25-.01.5-.02.76-.02.11,0,.23,0,.34,0h0c9.75.17,17.75,7.55,18.89,17.04h19.62v6.62l-.09.09-10.19,10.2c10.12.71,18.11,9.14,18.11,19.44"/>
  </g>
</svg>